<?xml version="1.0" encoding="iso-8859-1"?>
<!-- Generator: Adobe Illustrator 19.0.0, SVG Export Plug-In . SVG Version: 6.00 Build 0)  -->
<svg xmlns="http://www.w3.org/2000/svg" xmlns:xlink="http://www.w3.org/1999/xlink" version="1.1" id="Layer_1" x="0px" y="0px" viewBox="0 0 383.6 383.6" style="enable-background:new 0 0 383.6 383.6;" xml:space="preserve" width="512px" height="512px">
<g>
	<g>
		<g>
			<path d="M255.8,112h-12c-4.4,0-8,3.6-8,8c0,4.4,3.6,8,8,8h12c4.4,0,8-3.6,8-8C263.8,115.6,260.2,112,255.8,112z" fill="#c4c4c4"/>
			<path d="M315.8,48h-48c0-26.4-21.6-48-48-48h-60c-26.4,0-48,21.6-48,48h-44c-22,0-40,18-40,40v16c0,12,9.2,22,20.8,23.6L69,347.2     c2,20.8,19.2,36.4,40,36.4h165.6c20.8,0,38-15.6,40-36.4L335,127.6c11.6-1.6,20.8-11.6,20.8-23.6V88C355.8,66,337.8,48,315.8,48z      M159.8,16h60c17.6,0,32,14.4,32,32h-124C127.8,30.4,142.2,16,159.8,16z M339.8,104c0,4.4-3.6,8-8,8h-4c-4,0-7.6,3.2-8,7.2     L298.6,346c-1.2,12.4-11.6,22-24,22H109c-12.4,0-22.8-9.6-24-22L64.6,128h143.2c4.4,0,8-3.6,8-8c0-4.4-3.6-8-8-8h-152h-4     c-4.4,0-8-3.6-8-8V88c0-13.2,10.8-24,24-24h248c13.2,0,24,10.8,24,24V104z" fill="#c4c4c4"/>
			<path d="M127.8,160c-4.4,0-8,3.6-8,8v152c0,4.4,3.6,8,8,8c4.4,0,8-3.6,8-8V168C135.8,163.6,132.2,160,127.8,160z" fill="#c4c4c4"/>
			<path d="M191.8,160c-4.4,0-8,3.6-8,8v152c0,4.4,3.6,8,8,8c4.4,0,8-3.6,8-8V168C199.8,163.6,196.2,160,191.8,160z" fill="#c4c4c4"/>
			<path d="M255.8,160c-4.4,0-8,3.6-8,8v152c0,4.4,3.6,8,8,8c4.4,0,8-3.6,8-8V168C263.8,163.6,260.2,160,255.8,160z" fill="#c4c4c4"/>
		</g>
	</g>
</g>
<g>
</g>
<g>
</g>
<g>
</g>
<g>
</g>
<g>
</g>
<g>
</g>
<g>
</g>
<g>
</g>
<g>
</g>
<g>
</g>
<g>
</g>
<g>
</g>
<g>
</g>
<g>
</g>
<g>
</g>
</svg>
