<?xml version="1.0"?>
<svg xmlns="http://www.w3.org/2000/svg" height="512px" viewBox="0 0 480 480" width="512px"><path d="m479.921875 239.585938c-.046875-.792969-.207031-1.570313-.472656-2.3125-.058594-.160157-.082031-.335938-.144531-.488282-.332032-.761718-.777344-1.46875-1.320313-2.097656l-59.199219-66.632812c-4.566406-5.132813-11.113281-8.066407-17.984375-8.054688h-60.738281l9.792969-10.550781c2.167969-2.332031 2.746093-5.726563 1.476562-8.644531-1.269531-2.917969-4.148437-4.804688-7.332031-4.804688h-40v-128c0-4.417969-3.582031-8-8-8h-112c-4.417969 0-8 3.582031-8 8v128h-40c-3.183594 0-6.0625 1.886719-7.332031 4.804688-1.269531 2.917968-.691407 6.3125 1.476562 8.644531l9.792969 10.550781h-60.738281c-6.871094-.015625-13.417969 2.914062-17.984375 8.046875l-59.199219 66.640625c-.542969.628906-.988281 1.335938-1.320313 2.097656-.0625.152344-.085937.328125-.144531.488282-.265625.742187-.425781 1.519531-.472656 2.3125 0 .140624-.078125.269531-.078125.414062v200c.0273438 22.082031 17.917969 39.972656 40 40h400c22.082031-.027344 39.972656-17.917969 40-40v-200c0-.144531-.070312-.273438-.078125-.414062zm-295.921875-87.585938c4.417969 0 8-3.582031 8-8v-128h96v128c0 4.417969 3.582031 8 8 8h29.601562l-85.601562 92.238281-85.601562-92.238281zm-110.816406 26.664062c1.53125-1.710937 3.722656-2.679687 6.015625-2.664062h75.59375l79.34375 85.441406c1.511719 1.628906 3.636719 2.558594 5.863281 2.558594s4.351562-.929688 5.863281-2.558594l79.34375-85.441406h75.59375c2.296875-.015625 4.492188.957031 6.023438 2.671875l47.367187 53.328125h-94.191406c-13.253906 0-24 10.746094-24 24v16c0 13.253906-10.746094 24-24 24h-144c-13.253906 0-24-10.746094-24-24v-16c0-13.253906-10.746094-24-24-24h-94.191406zm390.816406 261.335938c0 13.253906-10.746094 24-24 24h-400c-13.253906 0-24-10.746094-24-24v-192h104c4.417969 0 8 3.582031 8 8v16c.027344 22.082031 17.917969 39.972656 40 40h144c22.082031-.027344 39.972656-17.917969 40-40v-16c0-4.417969 3.582031-8 8-8h104zm0 0" fill="#f0f2f3"/><path d="m304 328h-128c-13.253906 0-24 10.746094-24 24s10.746094 24 24 24h128c13.253906 0 24-10.746094 24-24s-10.746094-24-24-24zm0 32h-128c-4.417969 0-8-3.582031-8-8s3.582031-8 8-8h128c4.417969 0 8 3.582031 8 8s-3.582031 8-8 8zm0 0" fill="#f0f2f3"/><path d="m392 448h32c13.253906 0 24-10.746094 24-24v-32c0-4.417969-3.582031-8-8-8s-8 3.582031-8 8v32c0 4.417969-3.582031 8-8 8h-32c-4.417969 0-8 3.582031-8 8s3.582031 8 8 8zm0 0" fill="#f0f2f3"/></svg>
