<?xml version="1.0" encoding="iso-8859-1"?>
<!-- Generator: Adobe Illustrator 18.0.0, SVG Export Plug-In . SVG Version: 6.00 Build 0)  -->
<!DOCTYPE svg PUBLIC "-//W3C//DTD SVG 1.1//EN" "http://www.w3.org/Graphics/SVG/1.1/DTD/svg11.dtd">
<svg xmlns="http://www.w3.org/2000/svg" xmlns:xlink="http://www.w3.org/1999/xlink" version="1.1" id="Capa_1" x="0px" y="0px" viewBox="0 0 60 60" style="enable-background:new 0 0 60 60;" xml:space="preserve" width="512px" height="512px">
<g>
	<path d="M12,17h15c0.553,0,1-0.448,1-1s-0.447-1-1-1H12c-0.553,0-1,0.448-1,1S11.447,17,12,17z" fill="#c4c4c4"/>
	<path d="M46,23H12c-0.553,0-1,0.448-1,1s0.447,1,1,1h34c0.553,0,1-0.448,1-1S46.553,23,46,23z" fill="#c4c4c4"/>
	<path d="M46,31H12c-0.553,0-1,0.448-1,1s0.447,1,1,1h34c0.553,0,1-0.448,1-1S46.553,31,46,31z" fill="#c4c4c4"/>
	<path d="M54,2H6C2.748,2,0,4.748,0,8v33c0,3.252,2.748,6,6,6h8v10c0,0.413,0.254,0.784,0.64,0.933C14.757,57.978,14.879,58,15,58   c0.276,0,0.547-0.115,0.74-0.327L25.442,47H54c3.252,0,6-2.748,6-6V8C60,4.748,57.252,2,54,2z M58,41c0,2.168-1.832,4-4,4H27.179   l3.579-4.161c0.36-0.418,0.313-1.05-0.105-1.41c-0.419-0.358-1.05-0.312-1.41,0.106l-4.982,5.792l0,0L16,54.414V46   c0-0.552-0.447-1-1-1H6c-2.168,0-4-1.832-4-4V8c0-2.168,1.832-4,4-4h48c2.168,0,4,1.832,4,4V41z" fill="#c4c4c4"/>
</g>
<g>
</g>
<g>
</g>
<g>
</g>
<g>
</g>
<g>
</g>
<g>
</g>
<g>
</g>
<g>
</g>
<g>
</g>
<g>
</g>
<g>
</g>
<g>
</g>
<g>
</g>
<g>
</g>
<g>
</g>
</svg>
