<?xml version="1.0"?>
<svg xmlns="http://www.w3.org/2000/svg" height="512px" version="1.1" viewBox="-31 0 512 512.00058" width="512px">
<g id="surface1">
<path d="M 309.320312 328.34375 L 258.019531 320.851562 L 235.191406 274.390625 C 233.230469 270.46875 229.195312 267.933594 224.8125 267.933594 C 220.433594 267.933594 216.398438 270.46875 214.4375 274.390625 L 191.496094 320.851562 L 140.191406 328.34375 C 135.8125 328.921875 132.238281 332.035156 130.851562 336.183594 C 129.46875 340.335938 130.621094 344.945312 133.734375 348.058594 L 170.859375 384.257812 L 162.097656 435.332031 C 161.40625 439.714844 163.132812 443.980469 166.707031 446.628906 C 170.28125 449.167969 175.007812 449.511719 178.8125 447.554688 L 224.699219 423.457031 L 270.582031 447.554688 C 272.3125 448.476562 274.15625 448.820312 276.003906 448.820312 C 278.425781 448.820312 280.730469 448.128906 282.804688 446.628906 C 286.378906 444.09375 288.109375 439.714844 287.417969 435.332031 L 278.65625 384.257812 L 315.777344 348.058594 C 318.890625 344.945312 320.042969 340.449219 318.660156 336.183594 C 317.277344 332.035156 313.703125 328.921875 309.320312 328.34375 Z M 258.25 371.921875 C 255.480469 374.574219 254.328125 378.378906 254.90625 382.183594 L 260.785156 416.195312 L 230.234375 400.054688 C 228.503906 399.132812 226.660156 398.785156 224.816406 398.785156 C 222.96875 398.785156 221.125 399.246094 219.394531 400.054688 L 188.84375 416.078125 L 194.722656 382.070312 C 195.414062 378.378906 194.148438 374.460938 191.382812 371.808594 L 166.707031 347.710938 L 200.835938 342.753906 C 204.640625 342.179688 207.867188 339.875 209.480469 336.414062 L 224.699219 305.515625 L 239.917969 336.414062 C 241.644531 339.875 244.875 342.179688 248.5625 342.753906 L 282.6875 347.710938 Z M 258.25 371.921875 " style=" fill-rule:nonzero;fill-opacity:1;" stroke="#f0f2f3" fill="#f0f2f3"/>
<path d="M 390.714844 46.460938 C 384.488281 32.28125 370.425781 23.058594 354.859375 23.058594 L 317.046875 23.058594 L 317.046875 11.527344 C 317.046875 5.1875 312.433594 0 305.976562 0 L 143.652344 0 C 137.308594 0 132.582031 5.074219 132.582031 11.527344 L 132.582031 23.058594 L 94.769531 23.058594 C 79.203125 23.058594 65.140625 32.28125 58.914062 46.460938 L 0.691406 178.929688 C 0 180.425781 0 182.042969 0 183.539062 L 0 290.183594 C 0 322.003906 25.363281 348.175781 57.183594 348.175781 L 71.59375 348.175781 C 71.363281 351.632812 71.25 354.976562 71.25 358.550781 C 71.25 443.289062 140.191406 512 224.816406 512 C 309.4375 512 378.378906 443.289062 378.378906 358.550781 C 378.378906 354.976562 378.265625 351.632812 378.035156 348.175781 L 392.445312 348.175781 C 424.265625 348.175781 449.628906 322.003906 449.628906 290.183594 L 449.628906 183.539062 C 449.628906 181.925781 449.511719 180.3125 448.9375 178.929688 Z M 369.617188 55.570312 L 420.921875 171.78125 L 370.078125 171.78125 L 370.078125 117.824219 C 370.078125 111.484375 364.429688 106.066406 358.089844 106.066406 L 340.101562 106.066406 L 340.101562 57.644531 C 340.101562 51.765625 336.296875 47.269531 330.648438 46.117188 L 354.859375 46.117188 C 361.316406 46.117188 367.082031 49.804688 369.617188 55.570312 Z M 287.648438 218.242188 C 268.507812 209.597656 247.179688 204.871094 224.816406 204.871094 C 202.449219 204.871094 181.234375 209.710938 162.097656 218.242188 C 148.609375 200.605469 144.574219 181.464844 144.574219 181.234375 C 143.535156 175.816406 138.808594 171.78125 133.273438 171.78125 L 102.609375 171.78125 L 102.609375 129.125 L 347.019531 129.125 L 347.019531 171.78125 L 316.46875 171.78125 C 310.9375 171.78125 306.210938 175.816406 305.171875 181.234375 C 305.054688 181.464844 301.136719 200.488281 287.648438 218.242188 Z M 317.046875 69.171875 L 317.046875 106.066406 L 132.582031 106.066406 L 132.582031 69.171875 Z M 293.988281 23.058594 L 293.988281 46.117188 L 155.640625 46.117188 L 155.640625 23.058594 Z M 80.011719 55.570312 C 82.546875 49.691406 88.425781 46.117188 94.769531 46.117188 L 118.976562 46.117188 C 113.328125 47.269531 109.523438 51.765625 109.523438 57.644531 L 109.523438 106.066406 L 91.539062 106.066406 C 85.199219 106.066406 79.550781 111.484375 79.550781 117.824219 L 79.550781 171.78125 L 28.707031 171.78125 Z M 57.183594 325.117188 C 38.046875 325.117188 23.058594 309.320312 23.058594 290.183594 L 23.058594 194.839844 L 124.398438 194.839844 C 127.164062 204.0625 132.351562 216.511719 141.574219 229.3125 C 108.371094 250.871094 83.816406 284.765625 74.9375 325.117188 Z M 224.816406 488.828125 C 152.875 488.828125 94.308594 430.261719 94.308594 358.320312 C 94.308594 286.378906 152.875 227.8125 224.816406 227.8125 C 296.753906 227.8125 355.324219 286.378906 355.324219 358.320312 C 355.320312 430.375 296.753906 488.828125 224.816406 488.828125 Z M 426.570312 290.183594 C 426.570312 309.207031 411.582031 325.117188 392.445312 325.117188 L 374.691406 325.117188 C 365.8125 284.765625 341.257812 250.871094 308.054688 229.3125 C 317.277344 216.398438 322.464844 204.0625 325.230469 194.839844 L 426.570312 194.839844 Z M 426.570312 290.183594 " style=" fill-rule:nonzero;fill-opacity:1;" stroke="#f0f2f3" fill="#f0f2f3"/>
</g>
</svg>
